<svg width="28" height="28" viewBox="0 0 28 28" fill="none" xmlns="http://www.w3.org/2000/svg">
<path d="M21 0H7C6.07174 0 5.1815 0.368749 4.52513 1.02513C3.86875 1.6815 3.5 2.57174 3.5 3.5V24.5C3.5 25.4283 3.86875 26.3185 4.52513 26.9749C5.1815 27.6313 6.07174 28 7 28H21C21.9283 28 22.8185 27.6313 23.4749 26.9749C24.1313 26.3185 24.5 25.4283 24.5 24.5V3.5C24.5 2.57174 24.1313 1.6815 23.4749 1.02513C22.8185 0.368749 21.9283 0 21 0V0ZM22.1667 23.3333C22.1667 23.6428 22.0438 23.9395 21.825 24.1583C21.6062 24.3771 21.3094 24.5 21 24.5H7C6.69058 24.5 6.39383 24.3771 6.17504 24.1583C5.95625 23.9395 5.83333 23.6428 5.83333 23.3333V4.66667C5.83333 4.35725 5.95625 4.0605 6.17504 3.84171C6.39383 3.62292 6.69058 3.5 7 3.5H21C21.3094 3.5 21.6062 3.62292 21.825 3.84171C22.0438 4.0605 22.1667 4.35725 22.1667 4.66667V23.3333Z" fill="#FFAF2A"/>
<path d="M18.137 14.679C17.3654 13.9603 16.4443 13.4212 15.4397 13.1005L14.6604 12.803V9.0697C15.7591 9.16052 16.8379 9.41616 17.8605 9.82804L18.6084 7.95204C17.3531 7.43902 16.0158 7.15606 14.6604 7.1167V5.41687H13.3V7.1377C12.2155 7.20158 11.1745 7.58702 10.3099 8.24487C9.95821 8.52201 9.6757 8.87701 9.48458 9.28191C9.29347 9.68682 9.19897 10.1306 9.20854 10.5782C9.18389 11.3872 9.4594 12.1768 9.98204 12.7949C10.662 13.4995 11.5027 14.0287 12.432 14.3372L13.2942 14.6557V18.4905C12.5807 18.4706 11.8718 18.3692 11.1814 18.1884C10.4708 18.0202 9.77979 17.7777 9.11987 17.465V19.6315C10.4445 20.1703 11.8644 20.4354 13.2942 20.4109V22.5715H14.6569V20.3467C15.801 20.2847 16.8976 19.8689 17.7952 19.1567C18.1478 18.855 18.4288 18.4787 18.6179 18.0549C18.807 17.6311 18.8994 17.1706 18.8884 16.7067C18.907 15.9595 18.638 15.2337 18.137 14.679V14.679ZM13.2919 12.2967C12.8042 12.1346 12.3556 11.8728 11.9747 11.5279C11.7293 11.264 11.598 10.9139 11.6095 10.5537C11.6068 10.3745 11.6441 10.1969 11.7185 10.0338C11.793 9.87079 11.9028 9.72636 12.04 9.61104C12.4008 9.32735 12.8351 9.15286 13.2919 9.1082V12.2967ZM14.6545 18.4042V15.1375C15.1594 15.2956 15.6305 15.546 16.044 15.876C16.18 15.9997 16.2875 16.1513 16.3592 16.3205C16.4309 16.4897 16.4651 16.6724 16.4594 16.856C16.4609 17.703 15.8593 18.2191 14.6545 18.4042V18.4042Z" fill="#FFAF2A"/>
</svg>
