<svg width="28" height="28" viewBox="0 0 28 28" fill="none" xmlns="http://www.w3.org/2000/svg">
<path d="M24.4999 0H3.49992C2.85592 0 2.33325 0.5215 2.33325 1.16667V28L6.99992 24.5L10.4999 28L13.9999 24.5L17.4999 28L20.9999 24.5L25.6666 28V1.16667C25.6666 0.5215 25.1439 0 24.4999 0ZM15.1666 18.6667H6.99992V16.3333H15.1666V18.6667ZM15.1666 14H6.99992V11.6667H15.1666V14ZM15.1666 9.33333H6.99992V7H15.1666V9.33333ZM20.9999 18.6667H17.4999V16.3333H20.9999V18.6667ZM20.9999 14H17.4999V11.6667H20.9999V14ZM20.9999 9.33333H17.4999V7H20.9999V9.33333Z" fill="#52D5BA"/>
</svg>
