<svg width="28" height="28" viewBox="0 0 28 28" fill="none" xmlns="http://www.w3.org/2000/svg">
<path d="M2.33325 1.16667V26.8333C2.33325 27.1428 2.45617 27.4395 2.67496 27.6583C2.89375 27.8771 3.1905 28 3.49992 28H24.4999C24.8093 28 25.1061 27.8771 25.3249 27.6583C25.5437 27.4395 25.6666 27.1428 25.6666 26.8333V1.16667C25.6666 0.857247 25.5437 0.560501 25.3249 0.341709C25.1061 0.122916 24.8093 0 24.4999 0L3.49992 0C3.1905 0 2.89375 0.122916 2.67496 0.341709C2.45617 0.560501 2.33325 0.857247 2.33325 1.16667V1.16667ZM5.83325 5.83333H12.8333V12.8333H5.83325V5.83333ZM22.1666 22.1667H5.83325V19.8333H22.1666V22.1667ZM22.1666 17.5H5.83325V15.1667H22.1666V17.5ZM22.1666 12.8333H15.1666V10.5H22.1666V12.8333ZM22.1666 8.16667H15.1666V5.83333H22.1666V8.16667Z" fill="#3629B7"/>
</svg>
