<svg width="28" height="28" viewBox="0 0 28 28" fill="none" xmlns="http://www.w3.org/2000/svg">
<g clip-path="url(#clip0_2_9427)">
<path d="M28 4.66663H24.5V10.5H28V4.66663Z" fill="#FF4267"/>
<path d="M28 12.8334H24.5V18.6667H28V12.8334Z" fill="#FF4267"/>
<path d="M19.8334 0H1.16675V28H19.8334C21.7631 28 23.3334 26.4297 23.3334 24.5V3.5C23.3334 1.57033 21.7631 0 19.8334 0ZM12.2501 7C13.8612 7 15.1667 8.3055 15.1667 9.91667C15.1667 11.5278 13.8612 12.8333 12.2501 12.8333C10.6389 12.8333 9.33341 11.5278 9.33341 9.91667C9.33341 8.3055 10.6389 7 12.2501 7ZM17.5001 19.8333H7.00008V17.9422C7.00008 16.9027 7.68258 15.9938 8.68008 15.6998C9.60758 15.4257 10.8536 15.1667 12.2501 15.1667C13.6466 15.1667 14.8926 15.4257 15.8201 15.6998C16.8176 15.9938 17.5001 16.9027 17.5001 17.9422V19.8333Z" fill="#FF4267"/>
</g>
<defs>
<clipPath id="clip0_2_9427">
<rect width="28" height="28" fill="white"/>
</clipPath>
</defs>
</svg>
